<svg width="44" height="44" viewBox="0 0 44 44" fill="none" xmlns="http://www.w3.org/2000/svg">
<rect width="44" height="44" rx="12" fill="#F2F1F1"/>
<path d="M29 27V21.8C28.5 21.9 28 22 27.5 22H27V28H17V21C17 18.2 19.2 16 22 16C22.1 14.7 22.7 13.6 23.5 12.7C23.2 12.3 22.6 12 22 12C20.9 12 20 12.9 20 14V14.3C17 15.2 15 17.9 15 21V27L13 29V30H31V29L29 27ZM20 31C20 32.1 20.9 33 22 33C23.1 33 24 32.1 24 31H20ZM31 16.5C31 18.4 29.4 20 27.5 20C25.6 20 24 18.4 24 16.5C24 14.6 25.6 13 27.5 13C29.4 13 31 14.6 31 16.5Z" fill="#11453B"/>
<ellipse cx="27.4958" cy="16.474" rx="3.50415" ry="3.55311" fill="#EA4E4B"/>
</svg>
