<svg width="156" height="36" viewBox="0 0 156 36" fill="none" xmlns="http://www.w3.org/2000/svg">
<rect width="156" height="8" fill="#8D8E8D"/>
<rect width="78" height="8" fill="#11453B"/>
<rect x="78" width="78" height="8" fill="#EA4E4B"/>
<path d="M0.6 15H2.57L4.51 20.14L6.39 15H8.32V22H6.89V17.31L5.07 22H3.85L2.03 17.31V22H0.6V15ZM14.466 20.81V22H13.746C13.096 22 12.776 21.72 12.796 21.16C12.606 21.46 12.376 21.68 12.106 21.83C11.826 21.99 11.496 22.06 11.116 22.06C10.536 22.06 10.076 21.93 9.72602 21.67C9.37602 21.41 9.20602 21.03 9.20602 20.55C9.20602 20.01 9.40602 19.59 9.80602 19.29C10.206 18.99 10.796 18.84 11.566 18.84H12.586V18.59C12.586 18.36 12.496 18.18 12.326 18.04C12.146 17.9 11.916 17.83 11.626 17.83C11.366 17.83 11.146 17.89 10.986 18C10.816 18.12 10.716 18.27 10.686 18.46H9.32602C9.36602 17.94 9.60602 17.53 10.026 17.24C10.446 16.95 10.996 16.8 11.696 16.8C12.416 16.8 12.976 16.96 13.376 17.28C13.776 17.6 13.976 18.07 13.976 18.67V20.48C13.976 20.61 13.996 20.7 14.056 20.74C14.106 20.79 14.186 20.81 14.306 20.81H14.466ZM12.586 19.78H11.556C11.256 19.78 11.026 19.84 10.866 19.96C10.706 20.08 10.626 20.24 10.626 20.45C10.626 20.63 10.686 20.78 10.826 20.88C10.966 20.99 11.146 21.04 11.386 21.04C11.746 21.04 12.036 20.94 12.256 20.73C12.466 20.52 12.576 20.24 12.586 19.88V19.78ZM15.0115 15H16.4215V22H15.0115V15ZM17.5241 18.05C17.7441 17.65 18.0441 17.35 18.4341 17.13C18.8241 16.91 19.2741 16.8 19.7941 16.8C20.3141 16.8 20.7641 16.91 21.1641 17.11C21.5641 17.31 21.8741 17.6 22.0941 17.97C22.3141 18.34 22.4341 18.77 22.4441 19.27C22.4441 19.45 22.4241 19.61 22.4041 19.75H18.6741V19.79C18.7041 20.17 18.8241 20.46 19.0341 20.67C19.2341 20.89 19.5241 20.99 19.8841 20.99C20.1641 20.99 20.4041 20.93 20.5941 20.81C20.7841 20.69 20.9141 20.5 20.9741 20.26H22.3641C22.3041 20.6 22.1741 20.91 21.9741 21.18C21.7641 21.46 21.4941 21.67 21.1541 21.83C20.8141 21.99 20.4241 22.06 19.9841 22.06C19.4041 22.06 18.9141 21.96 18.4941 21.74C18.0741 21.53 17.7541 21.23 17.5341 20.83C17.3141 20.43 17.2041 19.97 17.2041 19.44C17.2041 18.91 17.3041 18.45 17.5241 18.05ZM21.0341 18.83C20.9841 18.52 20.8541 18.28 20.6441 18.11C20.4341 17.94 20.1741 17.85 19.8541 17.85C19.5441 17.85 19.2841 17.94 19.0741 18.12C18.8641 18.3 18.7441 18.53 18.7041 18.83H21.0341Z" fill="#8D8E8D"/>
<path d="M5.33 30.94C5.61 31.22 5.76 31.59 5.76 32.05C5.76 32.45 5.64 32.81 5.42 33.11C5.2 33.41 4.88 33.65 4.47 33.81C4.05 33.98 3.57 34.06 3.03 34.06C2.19 34.06 1.53 33.85 1.05 33.43C0.56 33.01 0.32 32.42 0.32 31.67H1.75C1.75 32.06 1.88 32.37 2.14 32.59C2.39 32.82 2.71 32.93 3.11 32.93C3.45 32.93 3.73 32.84 3.95 32.66C4.17 32.48 4.29 32.24 4.29 31.93C4.29 31.65 4.18 31.43 3.96 31.27C3.74 31.11 3.42 31.03 3.01 31.03H2.32V29.88H2.93C3.31 29.88 3.61 29.8 3.82 29.63C4.03 29.46 4.14 29.23 4.14 28.94C4.14 28.67 4.04 28.46 3.85 28.3C3.65 28.15 3.4 28.07 3.09 28.07C2.75 28.07 2.47 28.17 2.25 28.35C2.03 28.54 1.91 28.79 1.91 29.11H0.5C0.5 28.44 0.73 27.91 1.19 27.52C1.65 27.14 2.26 26.94 3.03 26.94C3.83 26.94 4.46 27.11 4.91 27.45C5.36 27.79 5.59 28.25 5.59 28.81C5.59 29.23 5.46 29.56 5.21 29.82C4.96 30.08 4.63 30.26 4.22 30.36C4.67 30.47 5.04 30.66 5.33 30.94ZM9.06352 30.69C9.40352 30.42 9.65352 30.17 9.81352 29.94C9.97352 29.72 10.0535 29.47 10.0535 29.2C10.0535 28.86 9.94352 28.6 9.74352 28.42C9.54352 28.24 9.27352 28.14 8.93352 28.14C8.60352 28.14 8.33352 28.25 8.13352 28.47C7.93352 28.69 7.83352 28.99 7.83352 29.36V29.47H6.38352V29.28C6.38352 28.84 6.48352 28.44 6.69352 28.08C6.90352 27.72 7.20352 27.44 7.59352 27.24C7.97352 27.04 8.42352 26.93 8.93352 26.93C9.75352 26.93 10.3835 27.13 10.8335 27.53C11.2835 27.93 11.5135 28.47 11.5135 29.14C11.5135 29.62 11.3935 30.04 11.1535 30.39C10.9135 30.74 10.5535 31.11 10.0635 31.51L8.49352 32.79H11.5435V34H6.41352V32.89L9.06352 30.69Z" fill="#8D8E8D"/>
<path d="M78.6 15H83.22V16.29H80.1V17.93H82.66V19.16H80.1V22H78.6V15ZM83.6881 18.05C83.9081 17.65 84.2081 17.35 84.5981 17.13C84.9881 16.91 85.4381 16.8 85.9581 16.8C86.4781 16.8 86.9281 16.91 87.3281 17.11C87.7281 17.31 88.0381 17.6 88.2581 17.97C88.4781 18.34 88.5981 18.77 88.6081 19.27C88.6081 19.45 88.5881 19.61 88.5681 19.75H84.8381V19.79C84.8681 20.17 84.9881 20.46 85.1981 20.67C85.3981 20.89 85.6881 20.99 86.0481 20.99C86.3281 20.99 86.5681 20.93 86.7581 20.81C86.9481 20.69 87.0781 20.5 87.1381 20.26H88.5281C88.4681 20.6 88.3381 20.91 88.1381 21.18C87.9281 21.46 87.6581 21.67 87.3181 21.83C86.9781 21.99 86.5881 22.06 86.1481 22.06C85.5681 22.06 85.0781 21.96 84.6581 21.74C84.2381 21.53 83.9181 21.23 83.6981 20.83C83.4781 20.43 83.3681 19.97 83.3681 19.44C83.3681 18.91 83.4681 18.45 83.6881 18.05ZM87.1981 18.83C87.1481 18.52 87.0181 18.28 86.8081 18.11C86.5981 17.94 86.3381 17.85 86.0181 17.85C85.7081 17.85 85.4481 17.94 85.2381 18.12C85.0281 18.3 84.9081 18.53 84.8681 18.83H87.1981ZM96.9087 17.35C97.2487 17.72 97.4287 18.33 97.4287 19.18V22.01H96.0187V19.13C96.0187 18.35 95.7187 17.96 95.1287 17.96C94.8187 17.96 94.5687 18.07 94.3887 18.29C94.1987 18.51 94.1087 18.81 94.1087 19.19V22.01H92.6987V19.13C92.6987 18.35 92.3987 17.96 91.7987 17.96C91.4887 17.96 91.2387 18.08 91.0587 18.3C90.8787 18.52 90.7887 18.82 90.7887 19.2V22.01H89.3787V16.86H90.6087L90.7387 17.5C90.9087 17.28 91.1187 17.11 91.3587 16.99C91.5987 16.87 91.8987 16.81 92.2587 16.8C92.9887 16.8 93.4987 17.09 93.7887 17.67C93.9687 17.39 94.2187 17.18 94.5187 17.03C94.8187 16.88 95.1687 16.8 95.5587 16.8C96.1087 16.8 96.5587 16.99 96.9087 17.35ZM103.374 20.81V22H102.654C102.004 22 101.684 21.72 101.704 21.16C101.514 21.46 101.284 21.68 101.014 21.83C100.734 21.99 100.404 22.06 100.024 22.06C99.4442 22.06 98.9842 21.93 98.6342 21.67C98.2842 21.41 98.1142 21.03 98.1142 20.55C98.1142 20.01 98.3142 19.59 98.7142 19.29C99.1142 18.99 99.7042 18.84 100.474 18.84H101.494V18.59C101.494 18.36 101.404 18.18 101.234 18.04C101.054 17.9 100.824 17.83 100.534 17.83C100.274 17.83 100.054 17.89 99.8942 18C99.7242 18.12 99.6242 18.27 99.5942 18.46H98.2342C98.2742 17.94 98.5142 17.53 98.9342 17.24C99.3542 16.95 99.9042 16.8 100.604 16.8C101.324 16.8 101.884 16.96 102.284 17.28C102.684 17.6 102.884 18.07 102.884 18.67V20.48C102.884 20.61 102.904 20.7 102.964 20.74C103.014 20.79 103.094 20.81 103.214 20.81H103.374ZM101.494 19.78H100.464C100.164 19.78 99.9342 19.84 99.7742 19.96C99.6142 20.08 99.5342 20.24 99.5342 20.45C99.5342 20.63 99.5942 20.78 99.7342 20.88C99.8742 20.99 100.054 21.04 100.294 21.04C100.654 21.04 100.944 20.94 101.164 20.73C101.374 20.52 101.484 20.24 101.494 19.88V19.78ZM103.92 15H105.33V22H103.92V15ZM106.432 18.05C106.652 17.65 106.952 17.35 107.342 17.13C107.732 16.91 108.182 16.8 108.702 16.8C109.222 16.8 109.672 16.91 110.072 17.11C110.472 17.31 110.782 17.6 111.002 17.97C111.222 18.34 111.342 18.77 111.352 19.27C111.352 19.45 111.332 19.61 111.312 19.75H107.582V19.79C107.612 20.17 107.732 20.46 107.942 20.67C108.142 20.89 108.432 20.99 108.792 20.99C109.072 20.99 109.312 20.93 109.502 20.81C109.692 20.69 109.822 20.5 109.882 20.26H111.272C111.212 20.6 111.082 20.91 110.882 21.18C110.672 21.46 110.402 21.67 110.062 21.83C109.722 21.99 109.332 22.06 108.892 22.06C108.312 22.06 107.822 21.96 107.402 21.74C106.982 21.53 106.662 21.23 106.442 20.83C106.222 20.43 106.112 19.97 106.112 19.44C106.112 18.91 106.212 18.45 106.432 18.05ZM109.942 18.83C109.892 18.52 109.762 18.28 109.552 18.11C109.342 17.94 109.082 17.85 108.762 17.85C108.452 17.85 108.192 17.94 107.982 18.12C107.772 18.3 107.652 18.53 107.612 18.83H109.942Z" fill="#8D8E8D"/>
<path d="M83.33 30.94C83.61 31.22 83.76 31.59 83.76 32.05C83.76 32.45 83.64 32.81 83.42 33.11C83.2 33.41 82.88 33.65 82.47 33.81C82.05 33.98 81.57 34.06 81.03 34.06C80.19 34.06 79.53 33.85 79.05 33.43C78.56 33.01 78.32 32.42 78.32 31.67H79.75C79.75 32.06 79.88 32.37 80.14 32.59C80.39 32.82 80.71 32.93 81.11 32.93C81.45 32.93 81.73 32.84 81.95 32.66C82.17 32.48 82.29 32.24 82.29 31.93C82.29 31.65 82.18 31.43 81.96 31.27C81.74 31.11 81.42 31.03 81.01 31.03H80.32V29.88H80.93C81.31 29.88 81.61 29.8 81.82 29.63C82.03 29.46 82.14 29.23 82.14 28.94C82.14 28.67 82.04 28.46 81.85 28.3C81.65 28.15 81.4 28.07 81.09 28.07C80.75 28.07 80.47 28.17 80.25 28.35C80.03 28.54 79.91 28.79 79.91 29.11H78.5C78.5 28.44 78.73 27.91 79.19 27.52C79.65 27.14 80.26 26.94 81.03 26.94C81.83 26.94 82.46 27.11 82.91 27.45C83.36 27.79 83.59 28.25 83.59 28.81C83.59 29.23 83.46 29.56 83.21 29.82C82.96 30.08 82.63 30.26 82.22 30.36C82.67 30.47 83.04 30.66 83.33 30.94ZM87.0635 30.69C87.4035 30.42 87.6535 30.17 87.8135 29.94C87.9735 29.72 88.0535 29.47 88.0535 29.2C88.0535 28.86 87.9435 28.6 87.7435 28.42C87.5435 28.24 87.2735 28.14 86.9335 28.14C86.6035 28.14 86.3335 28.25 86.1335 28.47C85.9335 28.69 85.8335 28.99 85.8335 29.36V29.47H84.3835V29.28C84.3835 28.84 84.4835 28.44 84.6935 28.08C84.9035 27.72 85.2035 27.44 85.5935 27.24C85.9735 27.04 86.4235 26.93 86.9335 26.93C87.7535 26.93 88.3835 27.13 88.8335 27.53C89.2835 27.93 89.5135 28.47 89.5135 29.14C89.5135 29.62 89.3935 30.04 89.1535 30.39C88.9135 30.74 88.5535 31.11 88.0635 31.51L86.4935 32.79H89.5435V34H84.4135V32.89L87.0635 30.69Z" fill="#8D8E8D"/>
</svg>
