<svg width="10" height="10" viewBox="0 0 10 10" fill="none" xmlns="http://www.w3.org/2000/svg">
<g clip-path="url(#clip0_4_6428)">
<path d="M6.52669 1.20081C6.52669 0.873591 6.53425 0.545578 6.52669 0.21836C6.52065 0.0452204 6.58263 -0.00163767 6.73911 0.000744981C7.18285 0.00948138 7.62734 0.0126583 8.07032 0.000744981C8.2593 -0.00481455 8.31298 0.0618995 8.30995 0.254895C8.30012 0.869619 8.31524 1.48514 8.30239 2.10066C8.29786 2.32622 8.34851 2.41835 8.58209 2.40881C9.09159 2.39611 9.09235 2.40881 9.09235 2.96C9.09235 3.28722 9.08554 3.61523 9.09235 3.94245C9.09688 4.10129 9.05682 4.16483 8.88975 4.16801C8.30466 4.18071 8.30466 4.18866 8.30466 4.81847C8.30466 5.12583 8.31222 5.43399 8.30466 5.74135C8.29937 5.90973 8.3538 5.96056 8.51405 5.96612C9.09235 5.98359 9.09235 5.98994 9.09235 6.59275C9.09235 6.90012 9.08554 7.20827 9.09235 7.51564C9.09764 7.68242 9.04472 7.73405 8.88295 7.73722C8.3039 7.74993 8.30466 7.75708 8.30466 8.36386C8.30466 8.83007 8.29786 9.29707 8.30466 9.76248C8.30466 9.94674 8.24645 10.0007 8.07788 9.99677C7.58727 9.98645 7.09516 9.98565 6.60456 9.99677C6.53549 10.0038 6.46604 9.98847 6.4055 9.95283C6.34497 9.9172 6.29626 9.86298 6.2659 9.79742C5.91514 9.18588 5.54927 8.58386 5.20154 7.97072C5.10478 7.79917 5.00121 7.72213 4.80164 7.7261C4.13113 7.74119 3.46061 7.73802 2.79009 7.7261C2.60413 7.7261 2.54971 7.78249 2.55349 7.97628C2.56482 8.56162 2.54895 9.14696 2.5618 9.7323C2.56633 9.94515 2.50057 10.0023 2.30478 9.99518C1.87994 9.98089 1.45435 9.97771 1.03027 9.99518C0.807267 10.0055 0.761156 9.91576 0.764936 9.7053C0.777031 9.13981 0.759643 8.57433 0.77325 8.00884C0.778542 7.79123 0.726381 7.71737 0.507915 7.72293C0.00521668 7.73563 0.00446279 7.72293 0.00446279 7.20113C0.00446279 6.85405 0.0105103 6.50619 0.00446279 6.15911C0.00446279 6.00027 0.0566207 5.95976 0.201005 5.9542C0.771738 5.93038 0.771739 5.92482 0.771739 5.31883C0.771739 5.01147 0.763424 4.70331 0.771739 4.39595C0.777787 4.21804 0.725627 4.15768 0.549493 4.15768C0.00446213 4.15212 0.00446279 4.14418 0.00446279 3.56043C0.00446279 3.25307 0.013534 2.94491 0.00446279 2.63755C-0.00309659 2.45647 0.0513288 2.39928 0.226706 2.39928C0.773249 2.39055 0.77325 2.38181 0.77325 1.7925C0.77325 1.27626 0.778542 0.760017 0.77325 0.244569C0.77325 0.0706355 0.814071 -0.00322655 0.995496 0.00153876C1.47703 0.013452 1.95856 0.0118636 2.44009 0.00153876C2.50491 -0.00391378 2.56976 0.011573 2.62596 0.0459239C2.68217 0.0802748 2.72704 0.131849 2.75456 0.193739C3.13253 0.856117 3.52713 1.51055 3.9051 2.17452C3.99732 2.33336 4.09484 2.41278 4.28307 2.41278C4.95359 2.40008 5.6241 2.40167 6.29462 2.41278C6.47907 2.41278 6.54332 2.3564 6.53501 2.15943C6.52065 1.84174 6.53501 1.52405 6.53501 1.20637L6.52669 1.20081ZM5.06395 4.16324C5.41547 4.76605 5.73749 5.32121 6.06406 5.87399C6.15402 6.02568 6.30445 5.95817 6.42767 5.95341C6.57885 5.94705 6.52291 5.80727 6.52367 5.7207C6.52896 5.27435 6.52367 4.828 6.52367 4.38165C6.52367 4.27364 6.54332 4.15927 6.37777 4.16165C5.95974 4.16721 5.53868 4.16324 5.06395 4.16324ZM4.01093 5.95976L3.01007 4.25537C2.91936 4.1005 2.77195 4.16404 2.65025 4.16959C2.49906 4.17754 2.56104 4.31811 2.56029 4.4023C2.55424 4.84786 2.56029 5.29341 2.56029 5.73897C2.56029 5.84381 2.53307 5.96373 2.70165 5.96135C3.11893 5.95658 3.53847 5.95976 4.01093 5.95976Z" fill="#515251"/>
</g>
<defs>
<clipPath id="clip0_4_6428">
<rect width="9.09091" height="10" fill="white"/>
</clipPath>
</defs>
</svg>
